<svg width="436" height="200" viewBox="0 0 436 200" xmlns="http://www.w3.org/2000/svg"><mask id="satori_om-id"><rect x="0" y="0" width="436" height="200" fill="#fff"/></mask><rect x="0" y="0" width="436" height="200" fill="#fff"/><mask id="satori_om-id-0"><rect x="19" y="32" width="399" height="20" fill="#fff"/></mask><path fill="black" d="M29.5 62.0L24.4 62.0L19.6 44.5L24.5 44.5L27.2 56.2L27.4 56.2L30.2 44.5L35.0 44.5L37.9 56.2L38.0 56.2L40.7 44.5L45.6 44.5L40.8 62.0L35.7 62.0L32.7 51.0L32.5 51.0L29.5 62.0ZM53.0 62.0L48.1 62.0L48.1 44.5L53.0 44.5L53.0 62.0ZM50.6 42.2L50.6 42.2Q49.5 42.2 48.7 41.5Q48.0 40.8 48.0 39.8L48.0 39.8Q48.0 38.8 48.7 38.1Q49.5 37.3 50.6 37.3L50.6 37.3Q51.6 37.3 52.4 38.1Q53.2 38.8 53.2 39.8L53.2 39.8Q53.2 40.8 52.4 41.5Q51.6 42.2 50.6 42.2ZM61.7 62.0L56.8 62.0L56.8 44.5L61.5 44.5L61.5 47.5L61.7 47.5Q62.2 45.9 63.3 45.1Q64.4 44.2 65.9 44.2L65.9 44.2Q66.3 44.2 66.7 44.3Q67.1 44.3 67.4 44.4L67.4 44.4L67.4 48.7Q67.1 48.6 66.5 48.5Q65.9 48.5 65.4 48.5L65.4 48.5Q64.3 48.5 63.5 48.9Q62.6 49.4 62.2 50.2Q61.7 51.0 61.7 52.1L61.7 52.1L61.7 62.0ZM77.1 62.3L77.1 62.3Q74.4 62.3 72.4 61.2Q70.5 60.1 69.4 58.1Q68.4 56.1 68.4 53.3L68.4 53.3Q68.4 50.6 69.4 48.6Q70.5 46.5 72.4 45.4Q74.3 44.3 76.9 44.3L76.9 44.3Q78.6 44.3 80.1 44.8Q81.6 45.4 82.7 46.5Q83.8 47.6 84.4 49.2Q85.1 50.9 85.1 53.1L85.1 53.1L85.1 54.5L70.3 54.5L70.3 51.5L80.5 51.5Q80.5 50.4 80.1 49.6Q79.6 48.8 78.8 48.3Q78 47.9 76.9 47.9L76.9 47.9Q75.8 47.9 75.0 48.4Q74.1 48.9 73.7 49.7Q73.2 50.6 73.2 51.6L73.2 51.6L73.2 54.5Q73.2 55.8 73.7 56.7Q74.1 57.7 75.0 58.2Q75.9 58.7 77.1 58.7L77.1 58.7Q77.9 58.7 78.6 58.5Q79.3 58.2 79.8 57.8Q80.2 57.3 80.5 56.7L80.5 56.7L85.0 57.0Q84.6 58.6 83.6 59.8Q82.5 61.0 80.9 61.6Q79.2 62.3 77.1 62.3ZM94.7 62.2L94.7 62.2Q92.7 62.2 91.1 61.2Q89.5 60.2 88.5 58.2Q87.6 56.2 87.6 53.2L87.6 53.2Q87.6 50.2 88.5 48.3Q89.5 46.3 91.1 45.3Q92.7 44.3 94.6 44.3L94.6 44.3Q96.1 44.3 97.1 44.8Q98.1 45.3 98.7 46.0Q99.3 46.7 99.6 47.4L99.6 47.4L99.8 47.4L99.8 38.7L104.6 38.7L104.6 62.0L99.8 62.0L99.8 59.2L99.6 59.2Q99.3 59.9 98.7 60.6Q98.0 61.3 97.1 61.8Q96.1 62.2 94.7 62.2ZM96.2 58.4L96.2 58.4Q97.4 58.4 98.2 57.7Q99.0 57.1 99.4 55.9Q99.9 54.8 99.9 53.2L99.9 53.2Q99.9 51.7 99.4 50.5Q99 49.4 98.2 48.7Q97.4 48.1 96.2 48.1L96.2 48.1Q95 48.1 94.2 48.8Q93.4 49.4 92.9 50.6Q92.5 51.7 92.5 53.2L92.5 53.2Q92.5 54.7 92.9 55.9Q93.4 57.1 94.2 57.7Q95 58.4 96.2 58.4ZM108.6 38.7L113.4 38.7L113.4 62.0L108.6 62.0L108.6 38.7ZM122.1 62.0L117.3 62.0L117.3 44.5L122.1 44.5L122.1 62.0ZM119.7 42.2L119.7 42.2Q118.6 42.2 117.8 41.5Q117.1 40.8 117.1 39.8L117.1 39.8Q117.1 38.8 117.8 38.1Q118.6 37.3 119.7 37.3L119.7 37.3Q120.8 37.3 121.5 38.1Q122.3 38.8 122.3 39.8L122.3 39.8Q122.3 40.8 121.5 41.5Q120.8 42.2 119.7 42.2ZM130.8 62.0L126.0 62.0L126.0 44.5L130.6 44.5L130.6 47.6L130.8 47.6Q131.3 46.0 132.6 45.2Q133.9 44.3 135.6 44.3L135.6 44.3Q137.4 44.3 138.7 45.2Q140.0 46.1 140.4 47.6L140.4 47.6L140.6 47.6Q141.1 46.1 142.5 45.2Q143.9 44.3 145.8 44.3L145.8 44.3Q148.3 44.3 149.8 45.8Q151.3 47.4 151.3 50.2L151.3 50.2L151.3 62.0L146.5 62.0L146.5 51.2Q146.5 49.7 145.7 49.0Q145.0 48.3 143.8 48.3L143.8 48.3Q142.5 48.3 141.7 49.1Q141 49.9 141 51.3L141 51.3L141 62.0L136.3 62.0L136.3 51.1Q136.3 49.8 135.6 49.0Q134.8 48.3 133.6 48.3L133.6 48.3Q132.8 48.3 132.2 48.7Q131.6 49.1 131.2 49.8Q130.8 50.5 130.8 51.5L130.8 51.5L130.8 62.0ZM163.1 62.3L163.1 62.3Q160.4 62.3 158.5 61.2Q156.5 60.1 155.5 58.1Q154.4 56.1 154.4 53.3L154.4 53.3Q154.4 50.6 155.5 48.6Q156.5 46.5 158.4 45.4Q160.3 44.3 162.9 44.3L162.9 44.3Q164.6 44.3 166.1 44.8Q167.6 45.4 168.7 46.5Q169.9 47.6 170.5 49.2Q171.1 50.9 171.1 53.1L171.1 53.1L171.1 54.5L156.4 54.5L156.4 51.5L166.6 51.5Q166.6 50.4 166.1 49.6Q165.6 48.8 164.8 48.3Q164.0 47.9 163.0 47.9L163.0 47.9Q161.9 47.9 161.0 48.4Q160.2 48.9 159.7 49.7Q159.2 50.6 159.2 51.6L159.2 51.6L159.2 54.5Q159.2 55.8 159.7 56.7Q160.2 57.7 161.1 58.2Q162.0 58.7 163.2 58.7L163.2 58.7Q164.0 58.7 164.7 58.5Q165.3 58.2 165.8 57.8Q166.3 57.3 166.5 56.7L166.5 56.7L171.0 57.0Q170.7 58.6 169.6 59.8Q168.6 61.0 166.9 61.6Q165.3 62.3 163.1 62.3Z M197.5 62.0L182.6 62.0L182.6 38.7L187.5 38.7L187.5 57.9L197.5 57.9L197.5 62.0ZM208.6 62.3L208.6 62.3Q205.9 62.3 204.0 61.2Q202.1 60.1 201.0 58.1Q200.0 56.1 200.0 53.3L200.0 53.3Q200.0 50.6 201.0 48.6Q202.1 46.5 204.0 45.4Q205.9 44.3 208.4 44.3L208.4 44.3Q210.2 44.3 211.7 44.8Q213.1 45.4 214.3 46.5Q215.4 47.6 216.0 49.2Q216.6 50.9 216.6 53.1L216.6 53.1L216.6 54.5L201.9 54.5L201.9 51.5L212.1 51.5Q212.1 50.4 211.6 49.6Q211.2 48.8 210.4 48.3Q209.6 47.9 208.5 47.9L208.5 47.9Q207.4 47.9 206.6 48.4Q205.7 48.9 205.2 49.7Q204.8 50.6 204.8 51.6L204.8 51.6L204.8 54.5Q204.8 55.8 205.2 56.7Q205.7 57.7 206.6 58.2Q207.5 58.7 208.7 58.7L208.7 58.7Q209.5 58.7 210.2 58.5Q210.9 58.2 211.3 57.8Q211.8 57.3 212.1 56.7L212.1 56.7L216.5 57.0Q216.2 58.6 215.1 59.8Q214.1 61.0 212.4 61.6Q210.8 62.3 208.6 62.3ZM227.8 62.3L227.8 62.3Q225.1 62.3 223.1 61.2Q221.2 60.1 220.1 58.1Q219.1 56.1 219.1 53.3L219.1 53.3Q219.1 50.6 220.1 48.6Q221.2 46.5 223.1 45.4Q225.0 44.3 227.6 44.3L227.6 44.3Q229.3 44.3 230.8 44.8Q232.3 45.4 233.4 46.5Q234.5 47.6 235.1 49.2Q235.8 50.9 235.8 53.1L235.8 53.1L235.8 54.5L221.0 54.5L221.0 51.5L231.2 51.5Q231.2 50.4 230.8 49.6Q230.3 48.8 229.5 48.3Q228.7 47.9 227.6 47.9L227.6 47.9Q226.5 47.9 225.7 48.4Q224.8 48.9 224.4 49.7Q223.9 50.6 223.9 51.6L223.9 51.6L223.9 54.5Q223.9 55.8 224.4 56.7Q224.8 57.7 225.7 58.2Q226.6 58.7 227.8 58.7L227.8 58.7Q228.6 58.7 229.3 58.5Q230.0 58.2 230.5 57.8Q230.9 57.3 231.2 56.7L231.2 56.7L235.7 57.0Q235.3 58.6 234.3 59.8Q233.2 61.0 231.6 61.6Q229.9 62.3 227.8 62.3ZM237.7 44.5L248.2 44.5L248.2 48.1L237.7 48.1L237.7 44.5ZM240.1 57.2L240.1 40.3L244.9 40.3L244.9 56.6Q244.9 57.3 245.1 57.6Q245.3 58.0 245.7 58.1Q246.1 58.3 246.6 58.3L246.6 58.3Q246.9 58.3 247.2 58.2Q247.6 58.2 247.8 58.1L247.8 58.1L248.5 61.7Q248.2 61.8 247.5 62.0Q246.8 62.2 245.9 62.2L245.9 62.2Q244.1 62.3 242.8 61.7Q241.5 61.2 240.8 60.1Q240.1 58.9 240.1 57.2L240.1 57.2ZM259.1 62.3L259.1 62.3Q256.4 62.3 254.4 61.2Q252.5 60.0 251.5 58.0Q250.5 55.9 250.5 53.3L250.5 53.3Q250.5 50.6 251.5 48.6Q252.5 46.6 254.5 45.4Q256.4 44.3 259.0 44.3L259.0 44.3Q261.3 44.3 263.0 45.1Q264.8 45.9 265.8 47.4Q266.8 48.9 266.9 51.0L266.9 51.0L262.3 51.0Q262.1 49.6 261.3 48.8Q260.4 48.0 259.1 48.0L259.1 48.0Q258.0 48.0 257.2 48.7Q256.3 49.3 255.9 50.4Q255.4 51.6 255.4 53.2L255.4 53.2Q255.4 54.9 255.8 56.1Q256.3 57.2 257.1 57.8Q258.0 58.5 259.1 58.5L259.1 58.5Q259.9 58.5 260.6 58.1Q261.3 57.8 261.7 57.1Q262.1 56.5 262.3 55.6L262.3 55.6L266.9 55.6Q266.7 57.6 265.8 59.1Q264.8 60.6 263.1 61.4Q261.4 62.3 259.1 62.3ZM277.9 62.3L277.9 62.3Q275.2 62.3 273.3 61.2Q271.4 60.0 270.3 58.0Q269.3 56.0 269.3 53.3L269.3 53.3Q269.3 50.6 270.3 48.6Q271.4 46.5 273.3 45.4Q275.2 44.3 277.9 44.3L277.9 44.3Q280.5 44.3 282.4 45.4Q284.4 46.5 285.4 48.6Q286.4 50.6 286.4 53.3L286.4 53.3Q286.4 56.0 285.4 58.0Q284.4 60.0 282.4 61.2Q280.5 62.3 277.9 62.3ZM277.9 58.5L277.9 58.5Q279.1 58.5 279.9 57.9Q280.7 57.2 281.1 56.0Q281.5 54.8 281.5 53.3L281.5 53.3Q281.5 51.7 281.1 50.5Q280.7 49.3 279.9 48.7Q279.1 48.0 277.9 48.0L277.9 48.0Q276.7 48.0 275.8 48.7Q275.0 49.3 274.6 50.5Q274.2 51.7 274.2 53.3L274.2 53.3Q274.2 54.8 274.6 56.0Q275.0 57.2 275.8 57.9Q276.7 58.5 277.9 58.5ZM296.0 62.2L296.0 62.2Q294.0 62.2 292.4 61.2Q290.8 60.2 289.9 58.2Q289.0 56.2 289.0 53.2L289.0 53.2Q289.0 50.2 289.9 48.3Q290.9 46.3 292.5 45.3Q294.1 44.3 296.0 44.3L296.0 44.3Q297.5 44.3 298.5 44.8Q299.5 45.3 300.1 46.0Q300.7 46.7 301.0 47.4L301.0 47.4L301.1 47.4L301.1 38.7L306.0 38.7L306.0 62.0L301.2 62.0L301.2 59.2L301.0 59.2Q300.6 59.9 300.0 60.6Q299.4 61.3 298.4 61.8Q297.4 62.2 296.0 62.2ZM297.6 58.4L297.6 58.4Q298.7 58.4 299.6 57.7Q300.4 57.1 300.8 55.9Q301.2 54.8 301.2 53.2L301.2 53.2Q301.2 51.7 300.8 50.5Q300.4 49.4 299.6 48.7Q298.7 48.1 297.6 48.1L297.6 48.1Q296.4 48.1 295.6 48.8Q294.7 49.4 294.3 50.6Q293.9 51.7 293.9 53.2L293.9 53.2Q293.9 54.7 294.3 55.9Q294.8 57.1 295.6 57.7Q296.4 58.4 297.6 58.4ZM317.9 62.3L317.9 62.3Q315.2 62.3 313.3 61.2Q311.3 60.1 310.3 58.1Q309.2 56.1 309.2 53.3L309.2 53.3Q309.2 50.6 310.3 48.6Q311.3 46.5 313.2 45.4Q315.1 44.3 317.7 44.3L317.7 44.3Q319.4 44.3 320.9 44.8Q322.4 45.4 323.5 46.5Q324.6 47.6 325.3 49.2Q325.9 50.9 325.9 53.1L325.9 53.1L325.9 54.5L311.2 54.5L311.2 51.5L321.3 51.5Q321.3 50.4 320.9 49.6Q320.4 48.8 319.6 48.3Q318.8 47.9 317.8 47.9L317.8 47.9Q316.7 47.9 315.8 48.4Q315.0 48.9 314.5 49.7Q314.0 50.6 314.0 51.6L314.0 51.6L314.0 54.5Q314.0 55.8 314.5 56.7Q315.0 57.7 315.9 58.2Q316.8 58.7 318.0 58.7L318.0 58.7Q318.8 58.7 319.4 58.5Q320.1 58.2 320.6 57.8Q321.1 57.3 321.3 56.7L321.3 56.7L325.8 57.0Q325.5 58.6 324.4 59.8Q323.4 61.0 321.7 61.6Q320.0 62.3 317.9 62.3Z M354.1 45.4L349.4 45.4Q349.2 44.0 348.2 43.2Q347.2 42.5 345.4 42.5L345.4 42.5Q344.2 42.5 343.4 42.8Q342.5 43.1 342.1 43.7Q341.7 44.3 341.7 45.1L341.7 45.1Q341.6 45.7 341.9 46.2Q342.2 46.6 342.7 47.0Q343.2 47.3 343.9 47.5Q344.6 47.8 345.3 48.0L345.3 48.0L347.4 48.5Q349.0 48.8 350.2 49.4Q351.5 49.9 352.4 50.8Q353.4 51.6 353.9 52.7Q354.4 53.8 354.4 55.3L354.4 55.3Q354.4 57.4 353.3 59.0Q352.3 60.6 350.2 61.4Q348.2 62.3 345.4 62.3L345.4 62.3Q342.6 62.3 340.5 61.4Q338.4 60.6 337.2 58.9Q336.1 57.2 336 54.6L336 54.6L340.8 54.6Q340.8 55.8 341.4 56.6Q342.0 57.4 343.0 57.8Q344.0 58.2 345.3 58.2L345.3 58.2Q346.6 58.2 347.5 57.8Q348.4 57.4 348.9 56.8Q349.4 56.1 349.4 55.3L349.4 55.3Q349.4 54.5 349.0 54.0Q348.5 53.4 347.6 53.1Q346.8 52.7 345.5 52.4L345.5 52.4L343.0 51.7Q340.0 51.0 338.3 49.5Q336.6 48.0 336.6 45.4L336.6 45.4Q336.6 43.3 337.7 41.7Q338.9 40.1 340.9 39.2Q342.9 38.4 345.4 38.4L345.4 38.4Q348.0 38.4 350.0 39.2Q351.9 40.1 353.0 41.7Q354.1 43.3 354.1 45.4L354.1 45.4ZM356.4 44.5L366.9 44.5L366.9 48.1L356.4 48.1L356.4 44.5ZM358.8 57.2L358.8 40.3L363.6 40.3L363.6 56.6Q363.6 57.3 363.8 57.6Q364.0 58.0 364.4 58.1Q364.8 58.3 365.3 58.3L365.3 58.3Q365.6 58.3 365.9 58.2Q366.3 58.2 366.5 58.1L366.5 58.1L367.2 61.7Q366.9 61.8 366.2 62.0Q365.5 62.2 364.6 62.2L364.6 62.2Q362.8 62.3 361.5 61.7Q360.2 61.2 359.5 60.1Q358.8 58.9 358.8 57.2L358.8 57.2ZM375.0 62.3L375.0 62.3Q373.4 62.3 372.0 61.7Q370.7 61.1 370.0 60.0Q369.2 58.8 369.2 57.1L369.2 57.1Q369.2 55.6 369.8 54.6Q370.3 53.6 371.2 53.0Q372.1 52.4 373.3 52.1Q374.5 51.8 375.8 51.7L375.8 51.7Q377.3 51.5 378.2 51.4Q379.2 51.3 379.6 51.0Q380.0 50.7 380.0 50.1L380.0 50.1L380.0 50.1Q380.0 49.0 379.3 48.4Q378.7 47.8 377.4 47.8L377.4 47.8Q376.1 47.8 375.3 48.4Q374.6 49.0 374.3 49.8L374.3 49.8L369.8 49.5Q370.2 47.9 371.2 46.7Q372.2 45.5 373.8 44.9Q375.4 44.3 377.4 44.3L377.4 44.3Q378.9 44.3 380.2 44.6Q381.6 45.0 382.6 45.7Q383.6 46.4 384.3 47.5Q384.9 48.6 384.9 50.2L384.9 50.2L384.9 62.0L380.3 62.0L380.3 59.5L380.1 59.5Q379.7 60.3 379 61.0Q378.3 61.6 377.3 61.9Q376.3 62.3 375.0 62.3ZM376.4 58.9L376.4 58.9Q377.5 58.9 378.3 58.5Q379.1 58.1 379.6 57.4Q380.0 56.6 380.0 55.7L380.0 55.7L380.0 53.9Q379.8 54.0 379.4 54.1Q379.0 54.2 378.5 54.3Q378.1 54.4 377.6 54.5Q377.1 54.6 376.7 54.6L376.7 54.6Q375.8 54.8 375.2 55.0Q374.6 55.3 374.2 55.8Q373.9 56.2 373.9 56.9L373.9 56.9Q373.9 57.9 374.6 58.4Q375.3 58.9 376.4 58.9ZM387.4 44.5L397.9 44.5L397.9 48.1L387.4 48.1L387.4 44.5ZM389.8 57.2L389.8 40.3L394.6 40.3L394.6 56.6Q394.6 57.3 394.8 57.6Q395.0 58.0 395.4 58.1Q395.8 58.3 396.3 58.3L396.3 58.3Q396.6 58.3 396.9 58.2Q397.3 58.2 397.5 58.1L397.5 58.1L398.2 61.7Q397.9 61.8 397.2 62.0Q396.5 62.2 395.6 62.2L395.6 62.2Q393.8 62.3 392.5 61.7Q391.2 61.2 390.5 60.1Q389.8 58.9 389.8 57.2L389.8 57.2ZM415.3 49.5L415.3 49.5L410.9 49.7Q410.8 49.2 410.4 48.7Q410.0 48.3 409.4 48.0Q408.8 47.7 408.0 47.7L408.0 47.7Q406.9 47.7 406.1 48.2Q405.3 48.6 405.3 49.4L405.3 49.4Q405.3 50.1 405.8 50.5Q406.3 50.9 407.5 51.2L407.5 51.2L410.7 51.8Q413.2 52.3 414.5 53.5Q415.7 54.7 415.7 56.5L415.7 56.5Q415.7 58.3 414.7 59.6Q413.7 60.8 412.0 61.6Q410.2 62.3 408.0 62.3L408.0 62.3Q404.5 62.3 402.4 60.8Q400.4 59.4 400.0 56.9L400.0 56.9L404.8 56.6Q405.0 57.7 405.8 58.3Q406.7 58.8 408.0 58.8L408.0 58.8Q409.2 58.8 410.0 58.3Q410.8 57.8 410.8 57.0L410.8 57.0Q410.8 56.4 410.3 55.9Q409.7 55.5 408.6 55.3L408.6 55.3L405.5 54.7Q403.0 54.2 401.7 52.9Q400.5 51.7 400.5 49.7L400.5 49.7Q400.5 48.0 401.4 46.8Q402.3 45.6 404.0 44.9Q405.7 44.3 407.9 44.3L407.9 44.3Q411.2 44.3 413.1 45.7Q415.0 47.1 415.3 49.5Z "/><mask id="satori_om-id-1"><rect x="136" y="84" width="165" height="116" fill="#fff"/></mask><mask id="satori_om-id-1-0"><rect x="136" y="84" width="165" height="39" fill="#fff"/></mask><path fill="black" d="M153.8 114.0L138.0 114.0L138.0 90.7L153.7 90.7L153.7 94.7L142.9 94.7L142.9 100.3L152.9 100.3L152.9 104.3L142.9 104.3L142.9 109.9L153.8 109.9L153.8 114.0ZM162.5 114.3L162.5 114.3Q160.8 114.3 159.5 113.7Q158.2 113.1 157.5 112.0Q156.7 110.8 156.7 109.1L156.7 109.1Q156.7 107.6 157.3 106.6Q157.8 105.6 158.7 105.0Q159.6 104.4 160.8 104.1Q162.0 103.8 163.3 103.7L163.3 103.7Q164.8 103.5 165.7 103.4Q166.7 103.3 167.1 103.0Q167.5 102.7 167.5 102.1L167.5 102.1L167.5 102.1Q167.5 101.0 166.8 100.4Q166.1 99.8 164.9 99.8L164.9 99.8Q163.6 99.8 162.8 100.4Q162.1 101.0 161.8 101.8L161.8 101.8L157.3 101.5Q157.7 99.9 158.7 98.7Q159.7 97.5 161.3 96.9Q162.8 96.3 164.9 96.3L164.9 96.3Q166.4 96.3 167.7 96.6Q169.1 97.0 170.1 97.7Q171.1 98.4 171.7 99.5Q172.3 100.6 172.3 102.2L172.3 102.2L172.3 114.0L167.8 114.0L167.8 111.5L167.6 111.5Q167.2 112.3 166.5 113.0Q165.8 113.6 164.8 113.9Q163.8 114.3 162.5 114.3ZM163.9 110.9L163.9 110.9Q165.0 110.9 165.8 110.5Q166.6 110.1 167.1 109.4Q167.5 108.6 167.5 107.7L167.5 107.7L167.5 105.9Q167.3 106.0 166.9 106.1Q166.5 106.2 166.0 106.3Q165.5 106.4 165.1 106.5Q164.6 106.6 164.2 106.6L164.2 106.6Q163.3 106.8 162.7 107.0Q162.0 107.3 161.7 107.8Q161.3 108.2 161.3 108.9L161.3 108.9Q161.3 109.9 162.1 110.4Q162.8 110.9 163.9 110.9ZM190.6 101.5L190.6 101.5L186.2 101.7Q186.1 101.2 185.7 100.7Q185.3 100.3 184.7 100.0Q184.1 99.7 183.3 99.7L183.3 99.7Q182.1 99.7 181.4 100.2Q180.6 100.6 180.6 101.4L180.6 101.4Q180.6 102.1 181.1 102.5Q181.6 102.9 182.8 103.2L182.8 103.2L186.0 103.8Q188.5 104.3 189.8 105.5Q191.0 106.7 191.0 108.5L191.0 108.5Q191.0 110.3 190.0 111.6Q189.0 112.8 187.3 113.6Q185.5 114.3 183.3 114.3L183.3 114.3Q179.8 114.3 177.7 112.8Q175.7 111.4 175.3 108.9L175.3 108.9L180.1 108.6Q180.3 109.7 181.1 110.3Q182.0 110.8 183.3 110.8L183.3 110.8Q184.5 110.8 185.3 110.3Q186.1 109.8 186.1 109.0L186.1 109.0Q186.1 108.4 185.5 107.9Q185 107.5 183.9 107.3L183.9 107.3L180.8 106.7Q178.3 106.2 177.0 104.9Q175.8 103.7 175.8 101.7L175.8 101.7Q175.8 100.0 176.7 98.8Q177.6 97.6 179.3 96.9Q181.0 96.3 183.2 96.3L183.2 96.3Q186.5 96.3 188.4 97.7Q190.3 99.1 190.6 101.5ZM197.1 120.5L197.1 120.5Q196.1 120.5 195.3 120.4Q194.5 120.2 194.0 120.0L194.0 120.0L195.1 116.4Q196.0 116.6 196.7 116.7Q197.3 116.7 197.8 116.3Q198.4 116.0 198.7 115.2L198.7 115.2L199.0 114.5L192.7 96.5L197.8 96.5L201.4 109.3L201.6 109.3L205.2 96.5L210.4 96.5L203.6 115.8Q203.1 117.2 202.2 118.3Q201.4 119.3 200.1 119.9Q198.9 120.5 197.1 120.5ZM215.7 114.2L215.7 114.2Q214.5 114.2 213.7 113.4Q212.9 112.6 212.9 111.5L212.9 111.5Q212.9 110.4 213.7 109.6Q214.5 108.8 215.7 108.8L215.7 108.8Q216.7 108.8 217.6 109.6Q218.4 110.4 218.4 111.5L218.4 111.5Q218.4 112.3 218.0 112.9Q217.6 113.5 217.0 113.9Q216.4 114.2 215.7 114.2ZM215.7 102.0L215.7 102.0Q214.5 102.0 213.7 101.2Q212.9 100.4 212.9 99.3L212.9 99.3Q212.9 98.2 213.7 97.4Q214.5 96.6 215.7 96.6L215.7 96.6Q216.7 96.6 217.6 97.4Q218.4 98.2 218.4 99.3L218.4 99.3Q218.4 100.1 218.0 100.7Q217.6 101.3 217.0 101.7Q216.4 102.0 215.7 102.0Z M235.2 90.7L239.9 90.7L239.9 114.0L234.9 114.0L234.9 95.3L234.8 95.3L229.5 98.7L229.5 94.3L235.2 90.7ZM250.9 90.7L255.5 90.7L255.5 114.0L250.6 114.0L250.6 95.3L250.5 95.3L245.1 98.7L245.1 94.3L250.9 90.7Z "/><mask id="satori_om-id-1-1"><rect x="136" y="123" width="165" height="38" fill="#fff"/></mask><path fill="black" d="M138.0 153.0L138.0 129.7L144.1 129.7L150.5 145.3L150.8 145.3L157.2 129.7L163.3 129.7L163.3 153.0L158.5 153.0L158.5 137.8L158.3 137.8L152.3 152.8L149.0 152.8L143.0 137.7L142.8 137.7L142.8 153.0L138.0 153.0ZM175.2 153.3L175.2 153.3Q172.5 153.3 170.5 152.2Q168.6 151.1 167.5 149.1Q166.5 147.1 166.5 144.3L166.5 144.3Q166.5 141.6 167.5 139.6Q168.6 137.5 170.5 136.4Q172.4 135.3 175.0 135.3L175.0 135.3Q176.7 135.3 178.2 135.8Q179.7 136.4 180.8 137.5Q181.9 138.6 182.5 140.2Q183.2 141.9 183.2 144.1L183.2 144.1L183.2 145.5L168.4 145.5L168.4 142.5L178.6 142.5Q178.6 141.4 178.2 140.6Q177.7 139.8 176.9 139.3Q176.1 138.9 175.0 138.9L175.0 138.9Q173.9 138.9 173.1 139.4Q172.3 139.9 171.8 140.7Q171.3 141.6 171.3 142.6L171.3 142.6L171.3 145.5Q171.3 146.8 171.8 147.7Q172.3 148.7 173.1 149.2Q174.0 149.7 175.2 149.7L175.2 149.7Q176.0 149.7 176.7 149.5Q177.4 149.2 177.9 148.8Q178.3 148.3 178.6 147.7L178.6 147.7L183.1 148.0Q182.7 149.6 181.7 150.8Q180.6 152.0 179.0 152.6Q177.3 153.3 175.2 153.3ZM192.8 153.2L192.8 153.2Q190.8 153.2 189.2 152.2Q187.6 151.2 186.6 149.2Q185.7 147.2 185.7 144.2L185.7 144.2Q185.7 141.2 186.6 139.3Q187.6 137.3 189.2 136.3Q190.8 135.3 192.8 135.3L192.8 135.3Q194.2 135.3 195.2 135.8Q196.2 136.3 196.8 137.0Q197.4 137.7 197.7 138.4L197.7 138.4L197.9 138.4L197.9 129.7L202.7 129.7L202.7 153.0L197.9 153.0L197.9 150.2L197.7 150.2Q197.4 150.9 196.8 151.6Q196.1 152.3 195.2 152.8Q194.2 153.2 192.8 153.2ZM194.3 149.4L194.3 149.4Q195.5 149.4 196.3 148.7Q197.1 148.1 197.5 146.9Q198.0 145.8 198.0 144.2L198.0 144.2Q198.0 142.7 197.5 141.5Q197.1 140.4 196.3 139.7Q195.5 139.1 194.3 139.1L194.3 139.1Q193.1 139.1 192.3 139.8Q191.5 140.4 191.0 141.6Q190.6 142.7 190.6 144.2L190.6 144.2Q190.6 145.7 191.1 146.9Q191.5 148.1 192.3 148.7Q193.1 149.4 194.3 149.4ZM211.5 153.0L206.7 153.0L206.7 135.5L211.5 135.5L211.5 153.0ZM209.1 133.2L209.1 133.2Q208.0 133.2 207.2 132.5Q206.5 131.8 206.5 130.8L206.5 130.8Q206.5 129.8 207.2 129.1Q208.0 128.3 209.1 128.3L209.1 128.3Q210.2 128.3 210.9 129.1Q211.7 129.8 211.7 130.8L211.7 130.8Q211.7 131.8 210.9 132.5Q210.2 133.2 209.1 133.2ZM226.6 145.5L226.6 145.5L226.6 135.5L231.4 135.5L231.4 153.0L226.8 153.0L226.8 149.8L226.6 149.8Q226.0 151.3 224.6 152.2Q223.2 153.2 221.3 153.2L221.3 153.2Q219.5 153.2 218.2 152.4Q216.9 151.6 216.1 150.1Q215.4 148.7 215.4 146.6L215.4 146.6L215.4 135.5L220.2 135.5L220.2 145.7Q220.2 147.3 221.0 148.2Q221.9 149.1 223.2 149.1L223.2 149.1Q224.1 149.1 224.9 148.7Q225.6 148.3 226.1 147.5Q226.6 146.7 226.6 145.5ZM240.1 153.0L235.3 153.0L235.3 135.5L239.9 135.5L239.9 138.6L240.1 138.6Q240.6 137.0 241.9 136.2Q243.2 135.3 244.9 135.3L244.9 135.3Q246.7 135.3 248.0 136.2Q249.3 137.1 249.7 138.6L249.7 138.6L249.9 138.6Q250.4 137.1 251.8 136.2Q253.2 135.3 255.1 135.3L255.1 135.3Q257.6 135.3 259.1 136.8Q260.6 138.4 260.6 141.2L260.6 141.2L260.6 153.0L255.8 153.0L255.8 142.2Q255.8 140.7 255.0 140.0Q254.3 139.3 253.1 139.3L253.1 139.3Q251.8 139.3 251.0 140.1Q250.3 140.9 250.3 142.3L250.3 142.3L250.3 153.0L245.6 153.0L245.6 142.1Q245.6 140.8 244.9 140.0Q244.1 139.3 242.9 139.3L242.9 139.3Q242.1 139.3 241.5 139.7Q240.9 140.1 240.5 140.8Q240.1 141.5 240.1 142.5L240.1 142.5L240.1 153.0ZM267.3 153.2L267.3 153.2Q266.1 153.2 265.3 152.4Q264.5 151.6 264.5 150.5L264.5 150.5Q264.5 149.4 265.3 148.6Q266.1 147.8 267.3 147.8L267.3 147.8Q268.4 147.8 269.2 148.6Q270.0 149.4 270.0 150.5L270.0 150.5Q270.0 151.3 269.6 151.9Q269.2 152.5 268.6 152.9Q268.0 153.2 267.3 153.2ZM267.3 141.0L267.3 141.0Q266.1 141.0 265.3 140.2Q264.5 139.4 264.5 138.3L264.5 138.3Q264.5 137.2 265.3 136.4Q266.1 135.6 267.3 135.6L267.3 135.6Q268.4 135.6 269.2 136.4Q270.0 137.2 270.0 138.3L270.0 138.3Q270.0 139.1 269.6 139.7Q269.2 140.3 268.6 140.7Q268.0 141.0 267.3 141.0Z M290.0 153.3L290.0 153.3Q287.4 153.3 285.4 152.4Q283.3 151.6 282.2 150.1Q281.0 148.6 281.0 146.7L281.0 146.7Q281.0 145.2 281.7 144.0Q282.3 142.8 283.5 142.0Q284.6 141.2 286.0 140.9L286.0 140.9L286.0 140.8Q284.2 140.4 283.0 139.0Q281.9 137.5 281.9 135.6L281.9 135.6Q281.9 133.8 282.9 132.4Q284.0 131.0 285.8 130.2Q287.7 129.4 290.0 129.4L290.0 129.4Q292.4 129.4 294.2 130.2Q296.1 131.0 297.1 132.4Q298.2 133.8 298.2 135.6L298.2 135.6Q298.2 137.5 297.0 139.0Q295.8 140.4 294.0 140.8L294.0 140.8L294.0 140.9Q295.4 141.2 296.6 142.0Q297.7 142.8 298.4 144.0Q299.0 145.2 299.1 146.7L299.1 146.7Q299.0 148.6 297.9 150.1Q296.7 151.6 294.7 152.4Q292.6 153.3 290.0 153.3ZM290.0 149.7L290.0 149.7Q291.2 149.7 292.1 149.2Q292.9 148.8 293.4 148.0Q293.9 147.3 293.9 146.3L293.9 146.3Q293.9 145.3 293.4 144.5Q292.9 143.7 292.0 143.3Q291.2 142.8 290.0 142.8L290.0 142.8Q288.9 142.8 288.0 143.3Q287.1 143.7 286.6 144.5Q286.1 145.3 286.1 146.3L286.1 146.3Q286.1 147.3 286.6 148.0Q287.1 148.8 288.0 149.2Q288.9 149.7 290.0 149.7ZM290.0 139.3L290.0 139.3Q291.0 139.3 291.8 138.9Q292.5 138.5 293.0 137.8Q293.4 137.1 293.4 136.1L293.4 136.1Q293.4 135.2 293.0 134.5Q292.5 133.8 291.8 133.5Q291.0 133.1 290.0 133.1L290.0 133.1Q289.0 133.1 288.3 133.5Q287.5 133.8 287.1 134.5Q286.7 135.2 286.7 136.1L286.7 136.1Q286.7 137.1 287.1 137.8Q287.5 138.5 288.3 138.9Q289.0 139.3 290.0 139.3Z "/><mask id="satori_om-id-1-2"><rect x="136" y="161" width="165" height="39" fill="#fff"/></mask><path fill="black" d="M142.9 191.0L138.0 191.0L138.0 167.7L142.9 167.7L142.9 177.3L152.9 177.3L152.9 167.7L157.8 167.7L157.8 191.0L152.9 191.0L152.9 181.3L142.9 181.3L142.9 191.0ZM166.8 191.3L166.8 191.3Q165.1 191.3 163.8 190.7Q162.5 190.1 161.7 189.0Q161.0 187.8 161.0 186.1L161.0 186.1Q161.0 184.6 161.5 183.6Q162.1 182.6 163.0 182.0Q163.9 181.4 165.1 181.1Q166.3 180.8 167.5 180.7L167.5 180.7Q169.1 180.5 170 180.4Q170.9 180.3 171.4 180.0Q171.8 179.7 171.8 179.1L171.8 179.1L171.8 179.1Q171.8 178.0 171.1 177.4Q170.4 176.8 169.2 176.8L169.2 176.8Q167.9 176.8 167.1 177.4Q166.3 178.0 166.1 178.8L166.1 178.8L161.6 178.5Q161.9 176.9 162.9 175.7Q163.9 174.5 165.5 173.9Q167.1 173.3 169.2 173.3L169.2 173.3Q170.7 173.3 172.0 173.6Q173.3 174.0 174.4 174.7Q175.4 175.4 176.0 176.5Q176.6 177.6 176.6 179.2L176.6 179.2L176.6 191.0L172.0 191.0L172.0 188.5L171.9 188.5Q171.5 189.3 170.8 190.0Q170.1 190.6 169.1 190.9Q168.1 191.3 166.8 191.3ZM168.2 187.9L168.2 187.9Q169.2 187.9 170.1 187.5Q170.9 187.1 171.3 186.4Q171.8 185.6 171.8 184.7L171.8 184.7L171.8 182.9Q171.6 183.0 171.2 183.1Q170.8 183.2 170.3 183.3Q169.8 183.4 169.3 183.5Q168.8 183.6 168.4 183.6L168.4 183.6Q167.6 183.8 167.0 184.0Q166.3 184.3 166.0 184.8Q165.6 185.2 165.6 185.9L165.6 185.9Q165.6 186.9 166.3 187.4Q167.1 187.9 168.2 187.9ZM185.2 191.0L180.4 191.0L180.4 173.5L185.1 173.5L185.1 176.5L185.3 176.5Q185.7 174.9 186.9 174.1Q188.0 173.2 189.4 173.2L189.4 173.2Q189.8 173.2 190.2 173.3Q190.6 173.3 191.0 173.4L191.0 173.4L191.0 177.7Q190.6 177.6 190.0 177.5Q189.4 177.5 188.9 177.5L188.9 177.5Q187.9 177.5 187.0 177.9Q186.2 178.4 185.7 179.2Q185.2 180.0 185.2 181.1L185.2 181.1L185.2 191.0ZM199.1 191.2L199.1 191.2Q197.1 191.2 195.5 190.2Q193.9 189.2 192.9 187.2Q192.0 185.2 192.0 182.2L192.0 182.2Q192.0 179.2 193.0 177.3Q193.9 175.3 195.5 174.3Q197.1 173.3 199.1 173.3L199.1 173.3Q200.5 173.3 201.5 173.8Q202.5 174.3 203.1 175.0Q203.7 175.7 204.0 176.4L204.0 176.4L204.2 176.4L204.2 167.7L209 167.7L209 191.0L204.2 191.0L204.2 188.2L204.0 188.2Q203.7 188.9 203.1 189.6Q202.4 190.3 201.5 190.8Q200.5 191.2 199.1 191.2ZM200.6 187.4L200.6 187.4Q201.8 187.4 202.6 186.7Q203.4 186.1 203.8 184.9Q204.3 183.8 204.3 182.2L204.3 182.2Q204.3 180.7 203.8 179.5Q203.4 178.4 202.6 177.7Q201.8 177.1 200.6 177.1L200.6 177.1Q199.4 177.1 198.6 177.8Q197.8 178.4 197.4 179.6Q196.9 180.7 196.9 182.2L196.9 182.2Q196.9 183.7 197.4 184.9Q197.8 186.1 198.6 186.7Q199.4 187.4 200.6 187.4ZM215.8 191.2L215.8 191.2Q214.7 191.2 213.9 190.4Q213.1 189.6 213.1 188.5L213.1 188.5Q213.1 187.4 213.9 186.6Q214.7 185.8 215.8 185.8L215.8 185.8Q216.9 185.8 217.7 186.6Q218.5 187.4 218.5 188.5L218.5 188.5Q218.5 189.3 218.1 189.9Q217.8 190.5 217.1 190.9Q216.5 191.2 215.8 191.2ZM215.8 179.0L215.8 179.0Q214.7 179.0 213.9 178.2Q213.1 177.4 213.1 176.3L213.1 176.3Q213.1 175.2 213.9 174.4Q214.7 173.6 215.8 173.6L215.8 173.6Q216.9 173.6 217.7 174.4Q218.5 175.2 218.5 176.3L218.5 176.3Q218.5 177.1 218.1 177.7Q217.8 178.3 217.1 178.7Q216.5 179.0 215.8 179.0Z M236.7 191.0L231.6 191.0L241.3 171.9L241.3 171.7L230.0 171.7L230.0 167.7L246.3 167.7L246.3 171.8L236.7 191.0Z "/></svg>